<svg xmlns="http://www.w3.org/2000/svg" xmlns:xlink="http://www.w3.org/1999/xlink" version="1.1" width="1000" height="1000" viewBox="0 0 1000 1000" xml:space="preserve">
<desc>Created with Fabric.js 3.5.0</desc>
<defs>
</defs>
<rect x="0" y="0" width="100%" height="100%" fill="rgba(255,255,255,0)"/>
<g transform="matrix(1.8328 0 0 1.8328 499.9889 499.9893)" id="280760">
<path style="stroke: none; stroke-width: 1; stroke-dasharray: none; stroke-linecap: butt; stroke-dashoffset: 0; stroke-linejoin: miter; stroke-miterlimit: 4; is-custom-font: none; font-file-url: none; fill: rgb(255,255,255); fill-rule: nonzero; opacity: 1;" vector-effect="non-scaling-stroke" transform=" translate(-248, -249.8037)" d="M 165.9 397.4 c 0 2 -2.3 3.6 -5.2 3.6 c -3.3 0.3 -5.6 -1.3 -5.6 -3.6 c 0 -2 2.3 -3.6 5.2 -3.6 c 3 -0.3 5.6 1.3 5.6 3.6 z m -31.1 -4.5 c -0.7 2 1.3 4.3 4.3 4.9 c 2.6 1 5.6 0 6.2 -2 s -1.3 -4.3 -4.3 -5.2 c -2.6 -0.7 -5.5 0.3 -6.2 2.3 z m 44.2 -1.7 c -2.9 0.7 -4.9 2.6 -4.6 4.9 c 0.3 2 2.9 3.3 5.9 2.6 c 2.9 -0.7 4.9 -2.6 4.6 -4.6 c -0.3 -1.9 -3 -3.2 -5.9 -2.9 z M 244.8 8 C 106.1 8 0 113.3 0 252 c 0 110.9 69.8 205.8 169.5 239.2 c 12.8 2.3 17.3 -5.6 17.3 -12.1 c 0 -6.2 -0.3 -40.4 -0.3 -61.4 c 0 0 -70 15 -84.7 -29.8 c 0 0 -11.4 -29.1 -27.8 -36.6 c 0 0 -22.9 -15.7 1.6 -15.4 c 0 0 24.9 2 38.6 25.8 c 21.9 38.6 58.6 27.5 72.9 20.9 c 2.3 -16 8.8 -27.1 16 -33.7 c -55.9 -6.2 -112.3 -14.3 -112.3 -110.5 c 0 -27.5 7.6 -41.3 23.6 -58.9 c -2.6 -6.5 -11.1 -33.3 2.6 -67.9 c 20.9 -6.5 69 27 69 27 c 20 -5.6 41.5 -8.5 62.8 -8.5 s 42.8 2.9 62.8 8.5 c 0 0 48.1 -33.6 69 -27 c 13.7 34.7 5.2 61.4 2.6 67.9 c 16 17.7 25.8 31.5 25.8 58.9 c 0 96.5 -58.9 104.2 -114.8 110.5 c 9.2 7.9 17 22.9 17 46.4 c 0 33.7 -0.3 75.4 -0.3 83.6 c 0 6.5 4.6 14.4 17.3 12.1 C 428.2 457.8 496 362.9 496 252 C 496 113.3 383.5 8 244.8 8 z M 97.2 352.9 c -1.3 1 -1 3.3 0.7 5.2 c 1.6 1.6 3.9 2.3 5.2 1 c 1.3 -1 1 -3.3 -0.7 -5.2 c -1.6 -1.6 -3.9 -2.3 -5.2 -1 z m -10.8 -8.1 c -0.7 1.3 0.3 2.9 2.3 3.9 c 1.6 1 3.6 0.7 4.3 -0.7 c 0.7 -1.3 -0.3 -2.9 -2.3 -3.9 c -2 -0.6 -3.6 -0.3 -4.3 0.7 z m 32.4 35.6 c -1.6 1.3 -1 4.3 1.3 6.2 c 2.3 2.3 5.2 2.6 6.5 1 c 1.3 -1.3 0.7 -4.3 -1.3 -6.2 c -2.2 -2.3 -5.2 -2.6 -6.5 -1 z m -11.4 -14.7 c -1.6 1 -1.6 3.6 0 5.9 c 1.6 2.3 4.3 3.3 5.6 2.3 c 1.6 -1.3 1.6 -3.9 0 -6.2 c -1.4 -2.3 -4 -3.3 -5.6 -2 z" stroke-linecap="round"/>
</g>
</svg>